<svg xmlns="http://www.w3.org/2000/svg" xmlns:xlink="http://www.w3.org/1999/xlink" width="1920" zoomAndPan="magnify" viewBox="0 0 1440 809.999993" height="1080" preserveAspectRatio="xMidYMid meet" version="1.0"><defs><clipPath id="83cbe40d74"><path d="M 653.25 289.5 L 786.75 289.5 L 786.75 520.5 L 653.25 520.5 Z M 653.25 289.5 " clip-rule="nonzero"/></clipPath></defs><g clip-path="url(#83cbe40d74)"><path fill="#000000" d="M 778.210938 337.101562 L 776.980469 337.101562 C 772.023438 310.058594 748.378906 289.5 720.023438 289.5 C 691.667969 289.5 668.023438 310.058594 663.066406 337.101562 L 661.832031 337.101562 C 657.191406 337.101562 653.414062 340.890625 653.414062 345.546875 L 653.414062 359.601562 C 653.414062 364.257812 657.191406 368.050781 661.832031 368.050781 L 665.214844 368.050781 L 665.097656 417.617188 C 662.875 423.632812 661.257812 430.066406 660.296875 436.496094 C 660.210938 436.726562 660.175781 436.957031 660.1875 437.195312 C 659.789062 440.003906 659.523438 442.792969 659.382812 445.550781 C 659.28125 445.878906 659.246094 446.21875 659.328125 446.542969 C 658.957031 455.84375 660.082031 464.589844 662.925781 471.308594 C 663.769531 473.304688 665.453125 474.761719 667.542969 475.300781 C 668.113281 475.445312 668.6875 475.519531 669.257812 475.519531 C 670.769531 475.519531 672.238281 475.011719 673.464844 474.046875 L 673.664062 473.890625 C 674.816406 474.59375 676.191406 474.960938 677.800781 474.960938 C 678.070312 474.960938 678.359375 474.933594 678.640625 474.914062 C 679.613281 491.074219 681.859375 501.558594 682.839844 505.507812 C 680.855469 506.210938 679.070312 507.167969 677.511719 508.359375 C 675.199219 510.125 674.308594 513.0625 675.246094 515.84375 C 676.195312 518.671875 678.71875 520.5 681.675781 520.5 L 709.949219 520.5 C 712.140625 520.5 714.214844 519.546875 715.644531 517.886719 C 717.085938 516.210938 717.726562 513.992188 717.402344 511.800781 C 715.484375 498.757812 715.664062 485.613281 717.925781 472.726562 C 718.097656 471.726562 718.980469 471 720.023438 471 C 721.066406 471 721.949219 471.726562 722.125 472.730469 C 724.386719 485.613281 724.5625 498.757812 722.648438 511.800781 C 722.324219 513.996094 722.964844 516.214844 724.402344 517.886719 C 725.835938 519.546875 727.910156 520.5 730.101562 520.5 L 758.375 520.5 C 761.328125 520.5 763.855469 518.671875 764.804688 515.84375 C 765.742188 513.0625 764.851562 510.125 762.539062 508.359375 C 760.980469 507.167969 759.195312 506.210938 757.210938 505.507812 C 758.191406 501.558594 760.4375 491.074219 761.410156 474.914062 C 761.691406 474.933594 761.980469 474.960938 762.25 474.960938 C 763.855469 474.960938 765.234375 474.59375 766.386719 473.890625 L 766.585938 474.050781 C 767.8125 475.015625 769.285156 475.519531 770.792969 475.519531 C 771.363281 475.519531 771.941406 475.449219 772.507812 475.300781 C 774.597656 474.761719 776.28125 473.308594 777.125 471.308594 C 779.96875 464.589844 781.089844 455.84375 780.71875 446.542969 C 780.804688 446.21875 780.769531 445.878906 780.664062 445.546875 C 780.523438 442.792969 780.261719 440.003906 779.863281 437.195312 C 779.875 436.957031 779.835938 436.726562 779.753906 436.496094 C 778.792969 430.0625 777.171875 423.632812 774.949219 417.613281 L 774.832031 368.046875 L 778.214844 368.046875 C 782.855469 368.046875 786.632812 364.257812 786.632812 359.597656 L 786.632812 345.546875 C 786.632812 340.890625 782.855469 337.101562 778.210938 337.101562 Z M 771.4375 418.582031 C 771.441406 418.585938 771.441406 418.589844 771.441406 418.59375 C 773.550781 424.191406 775.105469 430.175781 776.066406 436.171875 C 771.132812 439.105469 766.085938 440.035156 760.714844 439 C 759.503906 430.1875 757.429688 422.707031 755.183594 416.628906 C 760.261719 416.433594 764.679688 413.464844 767.117188 409.101562 C 768.75 412.0625 770.183594 415.253906 771.4375 418.582031 Z M 777.039062 445.03125 C 772.621094 447.390625 767.433594 448.269531 761.578125 447.644531 C 761.472656 445.992188 761.34375 444.367188 761.179688 442.792969 C 762.410156 442.976562 763.632812 443.09375 764.84375 443.09375 C 768.886719 443.09375 772.816406 442.074219 776.605469 440.078125 C 776.800781 441.738281 776.941406 443.390625 777.039062 445.03125 Z M 663.441406 440.074219 C 667.230469 442.074219 671.164062 443.09375 675.203125 443.09375 C 676.414062 443.09375 677.636719 442.972656 678.867188 442.792969 C 678.703125 444.367188 678.574219 445.992188 678.472656 447.644531 C 672.613281 448.265625 667.421875 447.386719 663.007812 445.03125 C 663.105469 443.390625 663.246094 441.738281 663.441406 440.074219 Z M 668.605469 418.59375 C 668.605469 418.589844 668.605469 418.585938 668.609375 418.582031 C 669.863281 415.253906 671.300781 412.0625 672.929688 409.101562 C 675.371094 413.464844 679.785156 416.433594 684.867188 416.628906 C 682.621094 422.707031 680.546875 430.1875 679.332031 439 C 673.960938 440.035156 668.914062 439.105469 663.984375 436.171875 C 664.941406 430.175781 666.496094 424.191406 668.605469 418.59375 Z M 757.5625 443.421875 L 746.613281 443.421875 C 743.8125 443.421875 741.53125 445.710938 741.53125 448.523438 L 741.53125 450.613281 L 734.507812 450.613281 C 742.15625 439.078125 745.851562 424.097656 745.75 405.089844 C 749.621094 411.835938 755.644531 424.910156 757.5625 443.421875 Z M 710.007812 450.613281 C 701.824219 439.480469 697.859375 424.574219 697.949219 405.222656 C 701.347656 409.265625 707.863281 413.824219 720.023438 413.824219 C 732.183594 413.824219 738.703125 409.265625 742.101562 405.222656 C 742.1875 424.578125 738.222656 439.480469 730.042969 450.613281 Z M 692.019531 441.371094 C 688.140625 441.371094 684.988281 444.535156 684.988281 448.425781 L 684.988281 450.609375 L 681.976562 450.609375 C 682.875 428.285156 689.941406 412.675781 694.292969 405.085938 C 694.195312 424.09375 697.890625 439.074219 705.539062 450.609375 L 699.046875 450.609375 L 699.046875 448.425781 C 699.046875 444.535156 695.894531 441.371094 692.019531 441.371094 Z M 722.546875 405.714844 C 728.566406 405.453125 734.351562 404.273438 739.757812 402.300781 C 737.074219 405.769531 731.429688 410.15625 720.023438 410.15625 C 708.617188 410.15625 702.972656 405.765625 700.289062 402.300781 C 705.699219 404.273438 711.480469 405.453125 717.5 405.714844 C 718.335938 405.757812 719.179688 405.777344 720.027344 405.777344 C 720.875 405.777344 721.710938 405.757812 722.546875 405.714844 Z M 720.023438 402.113281 C 694.953125 402.113281 674.554688 381.640625 674.554688 356.480469 C 674.554688 331.320312 694.953125 310.847656 720.023438 310.847656 C 745.09375 310.847656 765.492188 331.320312 765.492188 356.480469 C 765.492188 381.640625 745.09375 402.113281 720.023438 402.113281 Z M 681.074219 390.636719 C 684.8125 394.054688 689.007812 396.972656 693.546875 399.324219 C 691.941406 401.664062 689.121094 406.234375 686.332031 412.90625 C 686.019531 412.933594 685.707031 412.992188 685.394531 412.992188 C 679.417969 412.992188 674.554688 407.753906 674.554688 401.3125 C 674.554688 396.621094 677.148438 392.480469 681.074219 390.636719 Z M 681.875 454.277344 L 684.988281 454.277344 L 684.988281 458.277344 L 681.832031 458.277344 C 681.835938 456.96875 681.851562 455.632812 681.875 454.277344 Z M 688.640625 448.429688 C 688.640625 446.558594 690.15625 445.039062 692.019531 445.039062 C 693.882812 445.039062 695.394531 446.558594 695.394531 448.429688 L 695.394531 464.242188 C 695.394531 466.109375 693.882812 467.628906 692.019531 467.628906 C 690.15625 467.628906 688.640625 466.109375 688.640625 464.242188 Z M 699.046875 454.277344 L 741.53125 454.277344 L 741.53125 458.277344 L 699.046875 458.277344 Z M 745.183594 448.523438 C 745.183594 447.730469 745.828125 447.085938 746.613281 447.085938 L 749.675781 447.085938 L 749.675781 464.226562 L 746.613281 464.226562 C 745.824219 464.226562 745.183594 463.582031 745.183594 462.792969 Z M 753.332031 447.089844 L 757.875 447.089844 C 758 448.847656 758.09375 450.644531 758.136719 452.488281 C 758.238281 456.617188 758.238281 460.53125 758.167969 464.226562 L 753.332031 464.226562 Z M 754.652344 412.992188 C 754.339844 412.992188 754.03125 412.933594 753.714844 412.902344 C 750.925781 406.234375 748.105469 401.660156 746.503906 399.320312 C 751.039062 396.972656 755.234375 394.054688 758.976562 390.636719 C 762.902344 392.476562 765.492188 396.621094 765.492188 401.3125 C 765.492188 407.75 760.628906 412.992188 754.652344 412.992188 Z M 769.144531 356.480469 C 769.144531 329.296875 747.109375 307.183594 720.023438 307.183594 C 692.9375 307.183594 670.902344 329.296875 670.902344 356.480469 C 670.902344 365.972656 673.597656 374.84375 678.25 382.375 C 675.511719 379.066406 673.15625 375.421875 671.25 371.519531 C 669.597656 366.371094 668.75 360.992188 668.75 355.523438 C 668.75 326.800781 692.035156 303.429688 720.65625 303.429688 C 749.277344 303.429688 772.5625 326.800781 772.5625 355.523438 C 772.5625 358.191406 772.351562 360.863281 771.953125 363.476562 C 769.828125 370.476562 766.34375 376.878906 761.796875 382.375 C 766.449219 374.84375 769.144531 365.972656 769.144531 356.480469 Z M 720.023438 293.167969 C 746.761719 293.167969 769.035156 312.683594 773.476562 338.261719 C 766.21875 315.941406 745.292969 299.761719 720.65625 299.761719 C 692.945312 299.761719 669.910156 320.226562 665.765625 346.890625 C 666.167969 317.199219 690.347656 293.167969 720.023438 293.167969 Z M 657.070312 359.601562 L 657.070312 345.546875 C 657.070312 342.914062 659.207031 340.765625 661.832031 340.765625 L 662.511719 340.765625 C 662.246094 343.023438 662.09375 345.3125 662.09375 347.640625 C 662.09375 353.460938 662.960938 359.078125 664.554688 364.382812 L 661.832031 364.382812 C 659.207031 364.382812 657.070312 362.238281 657.070312 359.601562 Z M 668.851562 374.851562 C 671.398438 379.652344 674.597656 384.050781 678.328125 387.9375 C 673.808594 390.613281 670.902344 395.675781 670.902344 401.3125 C 670.902344 402.476562 671.035156 403.605469 671.269531 404.699219 C 670.390625 406.132812 669.5625 407.636719 668.773438 409.183594 Z M 675.175781 470.5 C 673.96875 469.457031 673.4375 467.132812 673.640625 463.777344 C 673.699219 462.765625 672.933594 461.898438 671.925781 461.835938 C 670.917969 461.757812 670.054688 462.542969 669.992188 463.554688 C 669.796875 466.804688 670.191406 469.316406 671.171875 471.183594 C 670.394531 471.785156 669.398438 471.992188 668.449219 471.746094 C 667.46875 471.496094 666.679688 470.8125 666.28125 469.875 C 663.867188 464.164062 662.789062 456.878906 662.867188 449.058594 C 666.496094 450.695312 670.507812 451.53125 674.875 451.53125 C 675.988281 451.53125 677.132812 451.457031 678.289062 451.351562 C 678.277344 451.703125 678.257812 452.046875 678.25 452.398438 C 678.1875 455.054688 678.175781 457.589844 678.183594 460.0625 C 678.183594 460.078125 678.171875 460.089844 678.171875 460.109375 C 678.171875 460.125 678.183594 460.136719 678.183594 460.152344 C 678.195312 464.085938 678.285156 467.800781 678.445312 471.269531 C 677.003906 471.386719 675.90625 471.128906 675.175781 470.5 Z M 678.703125 514.671875 C 678.539062 514.183594 678.128906 512.492188 679.722656 511.277344 C 681.367188 510.019531 683.269531 509.113281 685.527344 508.511719 C 686.003906 508.386719 686.410156 508.070312 686.652344 507.636719 C 686.890625 507.207031 686.949219 506.691406 686.808594 506.21875 C 686.785156 506.132812 685.667969 502.265625 684.5 495.0625 C 689.46875 495.625 694.253906 495.921875 698.878906 495.921875 C 703.539062 495.921875 708.046875 495.621094 712.460938 495.050781 C 712.488281 498.054688 712.625 501.0625 712.867188 504.070312 C 706.414062 504.851562 702.292969 509.546875 701.707031 516.835938 L 681.675781 516.835938 C 680.019531 516.832031 679.054688 515.71875 678.703125 514.671875 Z M 712.878906 515.488281 C 712.132812 516.355469 711.089844 516.832031 709.949219 516.832031 L 705.371094 516.832031 C 705.726562 513.089844 707.371094 508.4375 713.199219 507.707031 C 713.367188 509.253906 713.558594 510.792969 713.785156 512.335938 C 713.953125 513.472656 713.621094 514.625 712.878906 515.488281 Z M 720.023438 467.332031 C 717.203125 467.332031 714.804688 469.335938 714.324219 472.09375 C 713.203125 478.464844 712.59375 484.898438 712.46875 491.351562 C 703.542969 492.546875 694.171875 492.535156 683.933594 491.304688 C 682.90625 483.980469 681.972656 474.101562 681.84375 461.941406 L 684.988281 461.941406 L 684.988281 464.242188 C 684.988281 468.132812 688.144531 471.296875 692.019531 471.296875 C 695.894531 471.296875 699.050781 468.132812 699.050781 464.242188 L 699.050781 461.941406 L 741.535156 461.941406 L 741.535156 462.792969 C 741.535156 465.605469 743.816406 467.894531 746.617188 467.894531 L 758.074219 467.894531 C 757.753906 477.355469 756.964844 485.214844 756.109375 491.308594 C 745.875 492.535156 736.507812 492.546875 727.582031 491.351562 C 727.453125 484.898438 726.847656 478.464844 725.726562 472.09375 C 725.242188 469.335938 722.84375 467.332031 720.023438 467.332031 Z M 727.167969 515.488281 C 726.425781 514.625 726.09375 513.472656 726.261719 512.335938 C 726.488281 510.792969 726.679688 509.25 726.847656 507.707031 C 732.675781 508.4375 734.320312 513.089844 734.675781 516.832031 L 730.101562 516.832031 C 728.957031 516.832031 727.914062 516.355469 727.167969 515.488281 Z M 760.324219 511.277344 C 761.917969 512.492188 761.503906 514.183594 761.34375 514.671875 C 760.992188 515.71875 760.027344 516.832031 758.371094 516.832031 L 738.339844 516.832031 C 737.753906 509.546875 733.632812 504.851562 727.179688 504.066406 C 727.421875 501.0625 727.558594 498.054688 727.589844 495.050781 C 732 495.621094 736.507812 495.921875 741.171875 495.921875 C 745.792969 495.921875 750.578125 495.625 755.542969 495.0625 C 754.378906 502.265625 753.265625 506.136719 753.238281 506.222656 C 753.101562 506.695312 753.15625 507.207031 753.398438 507.640625 C 753.640625 508.070312 754.042969 508.386719 754.523438 508.511719 C 756.78125 509.117188 758.679688 510.019531 760.324219 511.277344 Z M 773.757812 469.878906 C 773.363281 470.816406 772.574219 471.5 771.597656 471.75 C 770.640625 471.992188 769.652344 471.785156 768.871094 471.183594 C 769.851562 469.316406 770.246094 466.804688 770.050781 463.558594 C 769.992188 462.546875 769.136719 461.765625 768.117188 461.835938 C 767.113281 461.898438 766.34375 462.765625 766.40625 463.777344 C 766.605469 467.132812 766.074219 469.457031 764.867188 470.5 C 764.140625 471.132812 763.042969 471.386719 761.597656 471.273438 C 761.855469 465.597656 761.953125 459.3125 761.789062 452.402344 C 761.78125 452.046875 761.761719 451.707031 761.75 451.355469 C 762.910156 451.460938 764.050781 451.535156 765.164062 451.535156 C 769.535156 451.535156 773.546875 450.699219 777.175781 449.058594 C 777.25 456.882812 776.175781 464.167969 773.757812 469.878906 Z M 768.777344 404.699219 C 769.007812 403.605469 769.144531 402.476562 769.144531 401.3125 C 769.144531 395.675781 766.238281 390.613281 761.71875 387.9375 C 765.449219 384.054688 768.648438 379.65625 771.195312 374.851562 L 771.273438 409.183594 C 770.484375 407.636719 769.65625 406.132812 768.777344 404.699219 Z M 782.976562 359.601562 C 782.976562 362.238281 780.839844 364.382812 778.214844 364.382812 L 775.496094 364.382812 C 775.5 364.359375 775.507812 364.332031 775.515625 364.308594 C 775.523438 364.28125 775.539062 364.261719 775.542969 364.234375 C 775.542969 364.222656 775.542969 364.210938 775.546875 364.199219 C 777.105469 358.945312 777.953125 353.390625 777.953125 347.636719 C 777.953125 345.3125 777.800781 343.023438 777.535156 340.765625 L 778.214844 340.765625 C 780.839844 340.765625 782.976562 342.910156 782.976562 345.546875 Z M 782.976562 359.601562 " fill-opacity="1" fill-rule="nonzero"/></g><path fill="#000000" d="M 720.023438 416.664062 C 715.140625 416.664062 711.164062 420.652344 711.164062 425.558594 C 711.164062 430.460938 715.140625 434.449219 720.023438 434.449219 C 724.910156 434.449219 728.882812 430.460938 728.882812 425.558594 C 728.882812 420.65625 724.910156 416.664062 720.023438 416.664062 Z M 720.023438 430.78125 C 717.152344 430.78125 714.816406 428.4375 714.816406 425.558594 C 714.816406 422.675781 717.152344 420.332031 720.023438 420.332031 C 722.894531 420.332031 725.230469 422.675781 725.230469 425.558594 C 725.230469 428.4375 722.894531 430.78125 720.023438 430.78125 Z M 720.023438 430.78125 " fill-opacity="1" fill-rule="nonzero"/><path fill="#000000" d="M 705.160156 317.296875 C 701.695312 317.296875 698.875 320.128906 698.875 323.605469 C 698.875 327.082031 701.695312 329.914062 705.160156 329.914062 C 708.625 329.914062 711.445312 327.082031 711.445312 323.605469 C 711.445312 320.128906 708.625 317.296875 705.160156 317.296875 Z M 705.160156 326.246094 C 703.707031 326.246094 702.527344 325.0625 702.527344 323.605469 C 702.527344 322.148438 703.707031 320.964844 705.160156 320.964844 C 706.613281 320.964844 707.792969 322.148438 707.792969 323.605469 C 707.792969 325.0625 706.613281 326.246094 705.160156 326.246094 Z M 705.160156 326.246094 " fill-opacity="1" fill-rule="nonzero"/><path fill="#000000" d="M 692.445312 328.328125 C 691.914062 328.511719 691.417969 328.777344 690.972656 329.109375 C 685.019531 333.550781 681.300781 339.90625 679.921875 348.003906 C 679.675781 349.453125 680.003906 350.910156 680.851562 352.113281 C 681.699219 353.3125 682.960938 354.109375 684.402344 354.355469 C 684.707031 354.40625 685.015625 354.433594 685.324219 354.433594 C 685.929688 354.433594 686.539062 354.332031 687.113281 354.128906 C 689.003906 353.472656 690.390625 351.835938 690.726562 349.859375 C 691.625 344.570312 693.84375 340.671875 697.507812 337.9375 C 699.933594 336.128906 700.441406 332.679688 698.640625 330.242188 C 697.210938 328.308594 694.71875 327.542969 692.445312 328.328125 Z M 695.328125 334.996094 C 690.875 338.316406 688.191406 342.976562 687.125 349.242188 C 687.011719 349.902344 686.550781 350.445312 685.921875 350.664062 C 685.632812 350.765625 685.324219 350.792969 685.019531 350.738281 C 684.53125 350.65625 684.121094 350.394531 683.835938 349.992188 C 683.554688 349.589844 683.445312 349.105469 683.527344 348.621094 C 684.742188 341.484375 687.980469 335.910156 693.15625 332.050781 C 693.300781 331.9375 693.46875 331.851562 693.644531 331.789062 C 693.839844 331.71875 694.046875 331.6875 694.246094 331.6875 C 694.8125 331.6875 695.355469 331.953125 695.710938 332.425781 C 696.308594 333.242188 696.140625 334.394531 695.328125 334.996094 Z M 695.328125 334.996094 " fill-opacity="1" fill-rule="nonzero"/></svg>