<svg xmlns="http://www.w3.org/2000/svg" xmlns:xlink="http://www.w3.org/1999/xlink" width="1920" zoomAndPan="magnify" viewBox="0 0 1440 809.999993" height="1080" preserveAspectRatio="xMidYMid meet" version="1.0"><defs><clipPath id="0479953feb"><path d="M 607 327 L 835.5 327 L 835.5 486.75 L 607 486.75 Z M 607 327 " clip-rule="nonzero"/></clipPath></defs><path fill="#000000" d="M 640.546875 356.148438 C 639.03125 353.5625 635.6875 352.683594 633.09375 354.1875 C 631.835938 354.917969 630.9375 356.089844 630.5625 357.492188 C 630.191406 358.894531 630.390625 360.355469 631.125 361.605469 C 631.859375 362.859375 633.035156 363.753906 634.441406 364.125 C 634.90625 364.246094 635.378906 364.304688 635.84375 364.304688 C 636.792969 364.304688 637.730469 364.054688 638.574219 363.566406 C 639.832031 362.835938 640.730469 361.664062 641.105469 360.261719 C 641.476562 358.863281 641.277344 357.402344 640.546875 356.148438 Z M 637.601562 359.339844 C 637.476562 359.8125 637.175781 360.207031 636.753906 360.449219 C 636.332031 360.695312 635.84375 360.761719 635.367188 360.636719 C 634.894531 360.511719 634.5 360.210938 634.257812 359.792969 C 634.011719 359.371094 633.941406 358.882812 634.066406 358.414062 C 634.191406 357.945312 634.492188 357.550781 634.914062 357.304688 C 635.203125 357.136719 635.519531 357.058594 635.832031 357.058594 C 636.460938 357.058594 637.074219 357.382812 637.414062 357.960938 C 637.660156 358.382812 637.722656 358.871094 637.601562 359.339844 Z M 637.601562 359.339844 " fill-opacity="1" fill-rule="nonzero"/><path fill="#000000" d="M 634.519531 371.53125 C 635.164062 368.980469 633.601562 366.382812 631.039062 365.742188 C 629.003906 365.226562 626.890625 366.085938 625.789062 367.875 C 625.53125 368.292969 625.339844 368.742188 625.226562 369.210938 C 623.730469 375.136719 624.664062 381.109375 628.003906 386.960938 C 628.636719 388.070312 629.664062 388.867188 630.902344 389.207031 C 631.324219 389.324219 631.757812 389.382812 632.183594 389.382812 C 633 389.382812 633.808594 389.171875 634.539062 388.757812 C 635.242188 388.363281 635.835938 387.792969 636.257812 387.109375 C 637.171875 385.625 637.203125 383.765625 636.339844 382.253906 C 634.230469 378.550781 633.636719 375.042969 634.519531 371.53125 Z M 633.167969 385.214844 C 633.167969 385.214844 633.167969 385.21875 633.167969 385.21875 C 633.066406 385.382812 632.921875 385.519531 632.753906 385.617188 C 632.480469 385.773438 632.167969 385.8125 631.867188 385.730469 C 631.558594 385.644531 631.316406 385.457031 631.160156 385.179688 C 628.292969 380.160156 627.480469 375.082031 628.742188 370.082031 C 628.769531 369.96875 628.816406 369.859375 628.875 369.761719 C 629.09375 369.40625 629.460938 369.203125 629.859375 369.203125 C 629.957031 369.203125 630.058594 369.21875 630.15625 369.242188 C 630.78125 369.398438 631.160156 370.03125 631.007812 370.65625 C 629.882812 375.109375 630.597656 379.484375 633.191406 384.03125 C 633.402344 384.402344 633.394531 384.855469 633.167969 385.214844 Z M 633.167969 385.214844 " fill-opacity="1" fill-rule="nonzero"/><path fill="#000000" d="M 666.804688 411.316406 C 662.089844 411.316406 658.253906 415.132812 658.253906 419.828125 C 658.253906 424.523438 662.089844 428.34375 666.804688 428.34375 C 671.519531 428.34375 675.355469 424.523438 675.355469 419.828125 C 675.355469 415.136719 671.519531 411.316406 666.804688 411.316406 Z M 666.804688 424.734375 C 664.085938 424.734375 661.875 422.535156 661.875 419.828125 C 661.875 417.121094 664.085938 414.921875 666.804688 414.921875 C 669.523438 414.921875 671.734375 417.121094 671.734375 419.828125 C 671.734375 422.535156 669.523438 424.734375 666.804688 424.734375 Z M 666.804688 424.734375 " fill-opacity="1" fill-rule="nonzero"/><path fill="#000000" d="M 689.152344 406.304688 C 685.730469 406.304688 682.949219 409.078125 682.949219 412.484375 C 682.949219 415.890625 685.730469 418.660156 689.152344 418.660156 C 692.574219 418.660156 695.355469 415.890625 695.355469 412.484375 C 695.355469 409.078125 692.574219 406.304688 689.152344 406.304688 Z M 689.152344 415.050781 C 687.730469 415.050781 686.570312 413.898438 686.570312 412.480469 C 686.570312 411.0625 687.730469 409.910156 689.152344 409.910156 C 690.574219 409.910156 691.734375 411.0625 691.734375 412.480469 C 691.734375 413.898438 690.574219 415.050781 689.152344 415.050781 Z M 689.152344 415.050781 " fill-opacity="1" fill-rule="nonzero"/><g clip-path="url(#0479953feb)"><path fill="#000000" d="M 835.5 365.960938 C 835.5 364.964844 834.691406 364.15625 833.691406 364.15625 C 833.496094 364.15625 813.402344 366.226562 802.46875 391.929688 C 799.101562 399.84375 797.53125 411.5 796.339844 422.914062 C 794.007812 445.164062 791.117188 465.140625 781.457031 465.140625 C 772.636719 465.140625 770.789062 461.863281 766.726562 447.84375 C 764.042969 438.578125 761 428.074219 752.476562 419.878906 C 747.074219 414.679688 740.628906 410.382812 733.285156 407.066406 C 734.019531 406.605469 734.792969 405.800781 735.148438 404.347656 C 736.6875 398.074219 721.226562 389.546875 712.503906 386.738281 C 709.207031 385.675781 706.15625 384.953125 703.519531 384.460938 L 690.136719 361.710938 L 691.703125 360.804688 C 693.179688 359.949219 694.234375 358.570312 694.671875 356.925781 C 695.105469 355.28125 694.871094 353.566406 694.015625 352.097656 L 689.109375 343.71875 C 688.25 342.25 686.867188 341.199219 685.214844 340.765625 C 683.566406 340.332031 681.839844 340.5625 680.363281 341.417969 L 680.011719 341.621094 C 667.390625 327.308594 645.921875 323.375 628.78125 333.3125 C 611.636719 343.25 604.472656 363.78125 610.75 381.773438 L 610.402344 381.976562 C 608.925781 382.832031 607.871094 384.210938 607.433594 385.855469 C 606.996094 387.5 607.230469 389.214844 608.089844 390.683594 L 612.992188 399.066406 C 614.179688 401.09375 616.324219 402.226562 618.53125 402.226562 C 619.621094 402.226562 620.730469 401.949219 621.738281 401.363281 L 623.304688 400.457031 L 637.703125 425.207031 C 636.238281 426.496094 634.753906 426.882812 633.980469 426.992188 L 631.453125 424.886719 C 629.582031 423.324219 626.875 423.207031 624.863281 424.601562 C 622.546875 426.214844 621.863281 429.375 623.3125 431.792969 L 624.046875 433.019531 C 620.71875 434.804688 614.855469 438.6875 616.628906 443.0625 C 617.105469 444.234375 617.972656 445.046875 619.144531 445.417969 C 619.667969 445.582031 620.222656 445.636719 620.78125 445.628906 C 620.398438 446.433594 620.140625 447.277344 620.101562 448.109375 C 620.042969 449.351562 620.457031 450.476562 621.304688 451.359375 C 622.160156 452.253906 623.285156 452.707031 624.523438 452.699219 C 625.113281 452.6875 625.710938 452.570312 626.292969 452.378906 C 626.226562 452.902344 626.222656 453.425781 626.296875 453.929688 C 626.480469 455.183594 627.128906 456.222656 628.167969 456.9375 C 628.839844 457.40625 629.65625 457.613281 630.578125 457.613281 C 636.289062 457.613281 645.953125 449.640625 650.246094 445.714844 C 652.457031 447.625 654.988281 448.605469 657.777344 448.605469 C 659.390625 448.605469 661.089844 448.269531 662.855469 447.625 C 667.160156 453.820312 671.539062 458.683594 675.039062 462.140625 C 675.0625 462.171875 675.09375 462.195312 675.117188 462.222656 C 676.742188 463.820312 678.1875 465.148438 679.3125 466.121094 C 680.171875 466.863281 680.386719 468.347656 679.757812 469.175781 C 679.019531 470.144531 678.441406 471.1875 678.039062 472.269531 C 677.199219 474.519531 677.878906 476.929688 679.777344 478.402344 C 680.765625 479.175781 681.921875 479.5625 683.082031 479.5625 C 684.132812 479.5625 685.1875 479.246094 686.128906 478.609375 L 697.910156 470.597656 C 697.914062 470.597656 697.914062 470.597656 697.914062 470.59375 C 697.914062 470.59375 697.917969 470.59375 697.917969 470.59375 L 702.207031 467.675781 C 704.785156 465.925781 705.757812 462.570312 704.527344 459.695312 C 704.070312 458.621094 703.550781 457.59375 703.054688 456.546875 C 703 456.367188 702.929688 456.203125 702.824219 456.054688 C 701.441406 453.171875 699.933594 450.390625 698.285156 447.738281 C 698.214844 447.597656 698.15625 447.453125 698.046875 447.335938 C 698.035156 447.320312 698.019531 447.316406 698.007812 447.304688 C 696.195312 444.421875 694.265625 441.648438 692.164062 439.0625 C 691.847656 438.675781 691.871094 438.261719 691.914062 438.050781 C 691.988281 437.679688 692.222656 437.359375 692.558594 437.179688 C 692.996094 436.941406 693.519531 436.964844 693.875 437.238281 C 698.089844 440.523438 703.078125 442.457031 708.75 443.078125 C 708.929688 443.136719 709.113281 443.164062 709.296875 443.164062 C 709.304688 443.164062 709.308594 443.160156 709.316406 443.160156 C 712.925781 443.492188 716.8125 443.300781 720.96875 442.570312 C 722.328125 442.332031 723.695312 442.882812 724.457031 443.980469 C 726.261719 446.578125 728.410156 448.429688 730.828125 449.488281 C 733.269531 450.558594 735.96875 450.027344 737.878906 448.105469 C 739.859375 446.117188 740.402344 443.207031 739.261719 440.6875 L 736.574219 434.753906 C 736.835938 434.992188 737.128906 435.210938 737.375 435.449219 C 741.71875 439.625 743.722656 446.535156 745.84375 453.851562 C 749.644531 466.96875 755.390625 486.789062 781.460938 486.789062 C 811.519531 486.789062 815.242188 451.164062 817.964844 425.152344 C 818.15625 423.292969 818.320312 421.484375 818.476562 419.71875 C 819.105469 412.617188 819.652344 406.480469 822.007812 401.414062 C 825 394.988281 829.257812 390 834.664062 386.589844 C 835.1875 386.257812 835.503906 385.683594 835.503906 385.066406 Z M 731.625 403.496094 C 731.511719 403.964844 731.355469 404.03125 731.285156 404.058594 C 730.582031 404.355469 728.722656 403.761719 727.496094 403.046875 C 726.671875 402.5625 725.613281 402.796875 725.078125 403.582031 C 724.539062 404.367188 724.707031 405.433594 725.457031 406.019531 C 726.796875 407.066406 729.082031 409.574219 728.292969 410.660156 C 727.757812 411.390625 724.011719 410.445312 720.394531 408.296875 C 719.847656 407.972656 719.171875 407.957031 718.609375 408.253906 C 718.050781 408.550781 717.6875 409.121094 717.65625 409.753906 C 717.640625 410.078125 717.425781 411.417969 716.671875 412.042969 C 716.527344 412.160156 716.085938 412.523438 715.015625 412.378906 C 714.539062 412.3125 713.277344 412.144531 713.140625 409.292969 C 713.066406 407.722656 712.195312 406.34375 710.902344 405.585938 C 713.429688 400.605469 714.179688 395.652344 713.167969 390.792969 C 723.261719 394.480469 732.148438 401.359375 731.625 403.496094 Z M 662.808594 440.933594 C 655.824219 429.039062 654.015625 414.535156 653.5625 408.867188 C 659.15625 408.292969 664.714844 406.578125 669.878906 403.585938 C 670.882812 403.003906 671.847656 402.378906 672.773438 401.710938 C 676.71875 398.964844 680.078125 395.582031 682.78125 391.722656 C 684.332031 392.03125 687.457031 392.90625 690.007812 395.238281 C 691.519531 396.625 693.777344 400.054688 696.167969 403.6875 C 698.429688 407.125 700.953125 410.949219 703.648438 414.34375 Z M 651.601562 438.488281 C 649.507812 432.910156 646.097656 428.898438 641.398438 426.554688 C 641.398438 426.550781 641.398438 426.550781 641.398438 426.550781 C 642.972656 424.484375 643.75 421.480469 644.128906 419.144531 C 645.652344 420 647.429688 420.496094 649.328125 420.496094 C 650.066406 420.496094 650.789062 420.425781 651.496094 420.28125 C 652.226562 423.90625 653.265625 427.960938 654.753906 432.097656 C 654.246094 433.304688 653.039062 436.0625 651.601562 438.488281 Z M 682.472656 381.621094 C 680.351562 389.613281 675.230469 396.308594 668.058594 400.46875 C 667.128906 401.003906 666.179688 401.472656 665.226562 401.921875 C 650.890625 408.390625 633.632812 403.117188 625.546875 389.292969 C 616.921875 374.546875 621.957031 355.5625 636.769531 346.976562 C 641.582031 344.183594 646.933594 342.757812 652.359375 342.757812 C 655.023438 342.757812 657.703125 343.101562 660.347656 343.796875 C 668.375 345.90625 675.097656 351.003906 679.273438 358.148438 C 683.457031 365.292969 684.589844 373.628906 682.472656 381.621094 Z M 692.636719 387.574219 C 692.636719 389.035156 692.042969 390.402344 691.035156 391.429688 C 688.839844 389.835938 686.542969 388.964844 684.824219 388.5 C 685.980469 386.460938 686.980469 384.324219 687.78125 382.082031 C 690.519531 382.484375 692.636719 384.78125 692.636719 387.574219 Z M 650.851562 416.722656 C 650.355469 416.828125 649.847656 416.886719 649.328125 416.886719 C 645.691406 416.886719 642.730469 414.191406 642.730469 410.871094 C 642.730469 410.09375 642.90625 409.328125 643.226562 408.613281 C 645.265625 408.921875 647.324219 409.101562 649.398438 409.101562 C 649.574219 409.101562 649.753906 409.085938 649.933594 409.082031 C 650.066406 410.894531 650.335938 413.546875 650.851562 416.722656 Z M 640.832031 416.210938 C 640.730469 417.519531 640.433594 419.699219 639.8125 421.644531 L 629.550781 404.003906 C 632.726562 405.746094 636.117188 407.050781 639.621094 407.90625 C 639.292969 408.859375 639.109375 409.855469 639.109375 410.875 C 639.109375 412.847656 639.746094 414.683594 640.832031 416.210938 Z M 699.199219 401.710938 C 697.128906 398.5625 695.285156 395.773438 693.691406 393.894531 C 695.320312 392.207031 696.257812 389.964844 696.257812 387.574219 C 696.257812 387.425781 696.242188 387.277344 696.234375 387.125 C 698.824219 387.328125 703.5 387.898438 709.074219 389.476562 C 710.726562 394.417969 710.15625 399.378906 707.335938 404.574219 L 700.046875 402.992188 C 699.757812 402.558594 699.476562 402.132812 699.199219 401.710938 Z M 695.234375 383.445312 C 693.964844 381.007812 691.621094 379.195312 688.863281 378.609375 C 689.703125 375.378906 690.097656 372.109375 690.136719 368.851562 L 698.902344 383.761719 C 697.316406 383.574219 696.066406 383.484375 695.234375 383.445312 Z M 684.289062 344.253906 C 685.007812 344.441406 685.605469 344.894531 685.980469 345.53125 L 690.878906 353.914062 C 691.253906 354.550781 691.355469 355.292969 691.164062 356.007812 C 690.976562 356.722656 690.519531 357.316406 689.878906 357.6875 L 688.855469 358.28125 C 687.925781 354.71875 686.53125 351.257812 684.621094 347.992188 C 683.902344 346.769531 683.132812 345.597656 682.316406 344.480469 C 682.925781 344.164062 683.613281 344.078125 684.289062 344.253906 Z M 613.34375 358.988281 C 615.882812 349.421875 622.011719 341.410156 630.601562 336.429688 C 636.363281 333.089844 642.769531 331.378906 649.265625 331.378906 C 652.453125 331.378906 655.664062 331.792969 658.824219 332.621094 C 668.4375 335.148438 676.484375 341.25 681.488281 349.804688 C 684.6875 355.273438 686.378906 361.328125 686.53125 367.484375 C 685.8125 363.609375 684.457031 359.835938 682.40625 356.328125 C 677.742188 348.351562 670.234375 342.660156 661.273438 340.304688 C 652.308594 337.949219 642.957031 339.210938 634.945312 343.855469 C 618.40625 353.445312 612.785156 374.644531 622.414062 391.109375 C 624.464844 394.617188 627.046875 397.625 629.996094 400.101562 C 624.855469 397.003906 620.398438 392.617188 617.167969 387.09375 C 612.164062 378.539062 610.808594 368.5625 613.34375 358.988281 Z M 616.125 397.25 L 611.222656 388.871094 C 610.847656 388.230469 610.746094 387.488281 610.9375 386.777344 C 611.113281 386.113281 611.539062 385.566406 612.109375 385.191406 C 612.683594 386.449219 613.324219 387.691406 614.035156 388.910156 C 615.964844 392.207031 618.296875 395.128906 620.925781 397.664062 L 619.917969 398.25 C 618.59375 399.007812 616.890625 398.566406 616.125 397.25 Z M 630.230469 453.976562 C 630.015625 453.828125 629.921875 453.675781 629.882812 453.40625 C 629.679688 452.050781 631.144531 449.480469 632.253906 448.089844 C 632.859375 447.328125 632.75 446.21875 632 445.589844 C 631.25 444.960938 630.140625 445.042969 629.484375 445.761719 C 628.28125 447.09375 625.851562 449.074219 624.472656 449.09375 C 624.210938 449.082031 624.085938 449.039062 623.925781 448.871094 C 623.789062 448.726562 623.707031 448.582031 623.722656 448.28125 C 623.785156 446.851562 625.820312 444.457031 627.242188 443.21875 C 627.957031 442.59375 628.070312 441.527344 627.5 440.773438 C 626.925781 440.019531 625.867188 439.835938 625.070312 440.34375 C 623.722656 441.210938 621.226562 442.296875 620.238281 441.980469 C 620.148438 441.953125 620.074219 441.929688 619.988281 441.71875 C 619.414062 440.296875 623.402344 437.210938 627.351562 435.402344 C 627.820312 435.191406 628.171875 434.789062 628.328125 434.300781 C 628.480469 433.8125 628.414062 433.28125 628.152344 432.839844 L 626.421875 429.949219 C 625.941406 429.144531 626.167969 428.097656 626.9375 427.5625 C 627.601562 427.097656 628.503906 427.136719 629.125 427.65625 L 632.207031 430.226562 C 632.515625 430.484375 632.902344 430.632812 633.304688 430.644531 C 633.4375 430.644531 635.757812 430.699219 638.347656 429.175781 C 643.617188 431.246094 647.097656 435.464844 648.941406 442.03125 C 644.15625 446.992188 632.226562 455.363281 630.230469 453.976562 Z M 652.789062 443.152344 C 654.246094 441.328125 655.601562 438.847656 656.617188 436.761719 C 657.773438 439.371094 659.125 441.957031 660.707031 444.433594 C 660.710938 444.441406 660.714844 444.445312 660.71875 444.453125 C 660.734375 444.476562 660.75 444.496094 660.765625 444.519531 C 657.644531 445.464844 655.042969 445.03125 652.789062 443.152344 Z M 684.082031 475.625 C 683.089844 476.296875 682.246094 475.746094 682.007812 475.5625 C 681.765625 475.375 681.007812 474.667969 681.433594 473.523438 C 681.714844 472.769531 682.125 472.035156 682.648438 471.347656 C 684.417969 469.023438 683.980469 465.382812 681.691406 463.398438 C 681.113281 462.898438 680.429688 462.28125 679.703125 461.605469 C 685.730469 458.949219 691.273438 455.496094 696.238281 451.320312 C 697.128906 452.835938 697.988281 454.382812 698.796875 455.972656 C 697.0625 456.796875 695.632812 458.265625 694.734375 460.25 C 693.515625 462.933594 693.488281 466 694.539062 468.523438 Z M 700.164062 464.695312 L 697.644531 466.410156 C 697.25 464.941406 697.351562 463.238281 698.03125 461.738281 C 698.371094 460.992188 699.074219 459.835938 700.320312 459.238281 C 700.605469 459.863281 700.921875 460.472656 701.195312 461.109375 C 701.75 462.40625 701.316406 463.914062 700.164062 464.695312 Z M 690.828125 434.003906 C 689.542969 434.699219 688.644531 435.917969 688.359375 437.34375 C 688.078125 438.757812 688.433594 440.210938 689.34375 441.328125 C 691.113281 443.5 692.742188 445.824219 694.292969 448.222656 C 689.128906 452.640625 683.285156 456.21875 676.886719 458.875 C 673.335938 455.292969 668.96875 450.292969 664.757812 443.972656 L 705.996094 417.121094 C 708.09375 419.441406 710.273438 421.375 712.5 422.578125 C 713.363281 428.492188 712.027344 434.011719 708.433594 439.378906 C 703.726562 438.746094 699.59375 437.105469 696.109375 434.386719 C 694.617188 433.230469 692.546875 433.078125 690.828125 434.003906 Z M 735.300781 445.566406 C 734.988281 445.882812 733.835938 446.863281 732.28125 446.183594 C 730.460938 445.386719 728.875 443.992188 727.433594 441.921875 C 725.871094 439.671875 723.089844 438.53125 720.332031 439.015625 C 717.59375 439.5 715 439.703125 712.53125 439.683594 C 715.421875 434.738281 716.691406 429.535156 716.324219 424.152344 C 717.621094 424.578125 718.847656 424.882812 719.980469 425.089844 C 721.652344 430.035156 725.035156 432.617188 729.929688 432.617188 C 730.460938 432.617188 731.011719 432.578125 731.582031 432.519531 L 735.953125 442.171875 C 736.582031 443.558594 736.027344 444.835938 735.300781 445.566406 Z M 724.058594 425.484375 C 724.710938 425.488281 725.324219 425.472656 725.859375 425.425781 C 727.285156 425.308594 728.691406 426.136719 729.304688 427.492188 L 729.980469 428.980469 C 727.199219 428.988281 725.285156 427.855469 724.058594 425.484375 Z M 818.71875 399.890625 C 816.097656 405.527344 815.523438 411.957031 814.863281 419.394531 C 814.707031 421.140625 814.546875 422.933594 814.359375 424.773438 C 811.777344 449.421875 808.246094 483.175781 781.457031 483.175781 C 758.109375 483.175781 753.238281 466.359375 749.320312 452.84375 C 747.0625 445.054688 744.929688 437.695312 739.890625 432.851562 C 737.960938 430.996094 735.769531 429.269531 733.378906 427.703125 L 732.609375 426.007812 C 731.367188 423.269531 728.566406 421.582031 725.5625 421.832031 C 723.265625 422.019531 719.542969 421.8125 714.90625 419.761719 C 710.902344 417.988281 706.722656 412.753906 702.957031 407.316406 L 708.820312 408.589844 C 709.21875 408.675781 709.503906 409.027344 709.523438 409.460938 C 709.703125 413.183594 711.527344 415.546875 714.53125 415.949219 C 714.867188 415.996094 715.1875 416.015625 715.488281 416.015625 C 717.152344 416.015625 718.292969 415.390625 718.988281 414.8125 C 719.785156 414.152344 720.308594 413.324219 720.648438 412.535156 C 723.835938 414.105469 728.949219 415.910156 731.230469 412.773438 C 731.765625 412.035156 732.015625 411.265625 732.070312 410.488281 C 738.917969 413.613281 744.929688 417.628906 749.960938 422.472656 C 757.785156 430 760.683594 440.011719 763.242188 448.84375 C 767.140625 462.285156 769.542969 468.746094 781.457031 468.746094 C 794.171875 468.746094 797.246094 449.042969 799.941406 423.285156 C 801.105469 412.152344 802.621094 400.816406 805.804688 393.335938 C 813.859375 374.398438 827.078125 369.371094 831.878906 368.136719 L 831.878906 384.085938 C 826.277344 387.851562 821.851562 393.160156 818.71875 399.890625 Z M 818.71875 399.890625 " fill-opacity="1" fill-rule="nonzero"/></g></svg>