<svg xmlns="http://www.w3.org/2000/svg" xmlns:xlink="http://www.w3.org/1999/xlink" width="1920" zoomAndPan="magnify" viewBox="0 0 1440 809.999993" height="1080" preserveAspectRatio="xMidYMid meet" version="1.0"><defs><clipPath id="f7d6c03fa7"><path d="M 604.5 290.25 L 835 290.25 L 835 519.75 L 604.5 519.75 Z M 604.5 290.25 " clip-rule="nonzero"/></clipPath></defs><g clip-path="url(#f7d6c03fa7)"><path fill="#000000" d="M 834.671875 293.351562 C 834.667969 293.292969 834.667969 293.25 834.664062 293.226562 C 834.664062 293.1875 834.652344 293.152344 834.648438 293.113281 C 834.640625 293.039062 834.628906 292.964844 834.613281 292.886719 C 834.601562 292.835938 834.597656 292.785156 834.585938 292.734375 C 834.574219 292.695312 834.558594 292.660156 834.546875 292.621094 C 834.527344 292.554688 834.503906 292.492188 834.476562 292.425781 C 834.457031 292.378906 834.4375 292.328125 834.417969 292.277344 C 834.398438 292.238281 834.375 292.203125 834.351562 292.164062 C 834.324219 292.109375 834.292969 292.058594 834.261719 292.003906 C 834.230469 291.960938 834.203125 291.914062 834.167969 291.867188 C 834.140625 291.828125 834.105469 291.792969 834.078125 291.753906 C 834.042969 291.714844 834.007812 291.671875 833.96875 291.632812 C 833.929688 291.589844 833.890625 291.550781 833.851562 291.515625 C 833.8125 291.476562 833.769531 291.445312 833.730469 291.410156 C 833.691406 291.378906 833.652344 291.347656 833.613281 291.316406 C 833.570312 291.285156 833.523438 291.253906 833.476562 291.226562 C 833.425781 291.191406 833.371094 291.164062 833.316406 291.132812 C 833.277344 291.113281 833.242188 291.089844 833.203125 291.070312 C 833.15625 291.046875 833.105469 291.03125 833.054688 291.011719 C 832.988281 290.984375 832.921875 290.960938 832.851562 290.941406 C 832.816406 290.929688 832.785156 290.914062 832.746094 290.902344 C 832.695312 290.890625 832.640625 290.886719 832.589844 290.875 C 832.515625 290.859375 832.441406 290.847656 832.363281 290.839844 C 832.324219 290.835938 832.289062 290.824219 832.25 290.824219 C 832.238281 290.824219 832.136719 290.816406 831.964844 290.808594 C 829.6875 290.707031 814.554688 290.265625 793.597656 295.515625 C 793.316406 295.585938 793.035156 295.65625 792.753906 295.726562 C 792.429688 295.808594 792.105469 295.894531 791.777344 295.980469 C 791.324219 296.097656 790.867188 296.21875 790.410156 296.34375 C 790.1875 296.402344 789.96875 296.460938 789.746094 296.523438 C 789.03125 296.71875 788.3125 296.921875 787.585938 297.132812 C 787.582031 297.132812 787.582031 297.132812 787.578125 297.132812 C 763.152344 304.203125 728.175781 320.503906 699.558594 358.011719 C 690.628906 356.804688 674.472656 356.421875 657.046875 364.695312 C 634.371094 375.464844 616.847656 397.207031 604.96875 429.320312 C 604.566406 430.402344 604.945312 431.621094 605.886719 432.289062 C 606.335938 432.605469 606.859375 432.765625 607.378906 432.765625 C 607.957031 432.765625 608.535156 432.570312 609.007812 432.1875 C 609.367188 431.894531 644.300781 403.785156 670.042969 411.535156 C 668.90625 414.457031 667.796875 417.445312 666.734375 420.488281 L 665.292969 419.054688 C 664.289062 418.054688 662.660156 418.054688 661.65625 419.054688 L 654.128906 426.554688 C 653.121094 427.554688 653.121094 429.175781 654.128906 430.171875 L 660.25 436.273438 L 650.398438 446.085938 C 649.394531 447.085938 649.394531 448.707031 650.398438 449.707031 L 675.140625 474.347656 C 675.640625 474.847656 676.300781 475.097656 676.957031 475.097656 C 677.613281 475.097656 678.273438 474.847656 678.777344 474.347656 L 688.628906 464.535156 L 694.746094 470.628906 C 695.25 471.132812 695.90625 471.382812 696.566406 471.382812 C 697.222656 471.382812 697.882812 471.132812 698.382812 470.628906 L 705.914062 463.132812 C 706.917969 462.132812 706.917969 460.511719 705.914062 459.511719 L 704.476562 458.078125 C 707.535156 457.019531 710.535156 455.914062 713.464844 454.78125 C 721.246094 480.421875 693.027344 515.210938 692.730469 515.570312 C 691.996094 516.464844 691.953125 517.738281 692.625 518.679688 C 693.121094 519.367188 693.90625 519.753906 694.71875 519.753906 C 695.015625 519.753906 695.316406 519.703125 695.609375 519.59375 C 727.847656 507.765625 749.679688 490.3125 760.496094 467.722656 C 768.804688 450.371094 768.417969 434.277344 767.203125 425.382812 C 804.867188 396.878906 821.230469 362.039062 828.332031 337.710938 C 835.476562 313.214844 834.765625 295.15625 834.671875 293.351562 Z M 613.058594 422.867188 C 624.285156 396.554688 639.800781 378.558594 659.261719 369.316406 C 673.8125 362.40625 687.40625 361.972656 696.054688 362.765625 C 686.722656 375.820312 678.632812 390.59375 671.953125 406.765625 C 650.8125 400.089844 625.355469 414.515625 613.058594 422.867188 Z M 676.957031 468.914062 L 655.851562 447.894531 L 663.886719 439.894531 L 684.992188 460.914062 Z M 696.566406 465.199219 L 690.445312 459.105469 C 690.445312 459.101562 690.441406 459.101562 690.441406 459.101562 L 665.707031 434.464844 C 665.703125 434.464844 665.703125 434.460938 665.703125 434.460938 C 665.703125 434.460938 665.703125 434.460938 665.699219 434.460938 L 659.578125 428.363281 L 663.472656 424.484375 L 700.457031 461.320312 Z M 755.851562 465.519531 C 746.574219 484.902344 728.503906 500.355469 702.085938 511.535156 C 710.472656 499.289062 724.953125 473.933594 718.25 452.878906 C 734.492188 446.226562 749.324219 438.167969 762.429688 428.875 C 763.226562 437.492188 762.792969 451.027344 755.851562 465.519531 Z M 762.902344 422.203125 C 748.703125 432.765625 732.269531 441.800781 714.050781 449.054688 C 709.683594 450.796875 705.101562 452.46875 700.421875 454.042969 L 670.785156 424.523438 C 672.363281 419.875 674.042969 415.3125 675.792969 410.949219 C 683.074219 392.804688 692.144531 376.4375 702.753906 362.296875 C 729.640625 326.453125 762.507812 310.214844 786.277344 302.871094 C 788.125 311.773438 792.480469 319.839844 799.003906 326.339844 C 805.527344 332.835938 813.628906 337.175781 822.566406 339.015625 C 815.191406 362.691406 798.890625 395.425781 762.902344 422.203125 Z M 829.582031 296.265625 C 829.578125 296.390625 829.578125 296.523438 829.578125 296.65625 C 829.578125 296.75 829.578125 296.84375 829.578125 296.941406 C 829.574219 297.167969 829.570312 297.40625 829.566406 297.652344 C 829.566406 297.722656 829.5625 297.800781 829.5625 297.875 C 829.558594 298.070312 829.554688 298.273438 829.546875 298.480469 C 829.546875 298.585938 829.542969 298.695312 829.539062 298.804688 C 829.535156 299 829.527344 299.199219 829.519531 299.40625 C 829.515625 299.515625 829.511719 299.621094 829.507812 299.734375 C 829.5 300.03125 829.488281 300.335938 829.472656 300.65625 C 829.46875 300.691406 829.46875 300.730469 829.46875 300.769531 C 829.453125 301.085938 829.433594 301.414062 829.417969 301.75 C 829.410156 301.863281 829.40625 301.976562 829.398438 302.089844 C 829.382812 302.351562 829.367188 302.621094 829.351562 302.898438 C 829.34375 303.019531 829.335938 303.140625 829.328125 303.261719 C 829.304688 303.601562 829.28125 303.945312 829.253906 304.296875 C 829.25 304.355469 829.246094 304.40625 829.242188 304.464844 C 829.214844 304.871094 829.179688 305.289062 829.144531 305.714844 C 829.132812 305.832031 829.121094 305.957031 829.113281 306.078125 C 829.082031 306.398438 829.054688 306.726562 829.023438 307.058594 C 829.011719 307.199219 828.996094 307.339844 828.984375 307.480469 C 828.945312 307.855469 828.910156 308.234375 828.867188 308.617188 C 828.859375 308.707031 828.851562 308.789062 828.839844 308.878906 C 828.789062 309.351562 828.738281 309.835938 828.679688 310.324219 C 828.664062 310.445312 828.652344 310.566406 828.636719 310.6875 C 828.589844 311.070312 828.542969 311.453125 828.492188 311.84375 C 828.472656 312.003906 828.453125 312.160156 828.433594 312.320312 C 828.378906 312.722656 828.324219 313.128906 828.269531 313.539062 C 828.25 313.660156 828.234375 313.78125 828.21875 313.90625 C 828.144531 314.4375 828.0625 314.976562 827.980469 315.527344 C 827.964844 315.632812 827.945312 315.738281 827.929688 315.847656 C 827.863281 316.292969 827.789062 316.746094 827.714844 317.207031 C 827.6875 317.375 827.660156 317.542969 827.632812 317.714844 C 827.558594 318.148438 827.484375 318.589844 827.40625 319.035156 C 827.382812 319.179688 827.355469 319.324219 827.332031 319.46875 C 827.226562 320.0625 827.117188 320.65625 827 321.261719 C 826.992188 321.320312 826.976562 321.378906 826.96875 321.4375 C 826.863281 321.980469 826.753906 322.53125 826.644531 323.082031 C 826.609375 323.253906 826.574219 323.425781 826.539062 323.59375 C 826.441406 324.070312 826.339844 324.550781 826.238281 325.035156 C 826.203125 325.195312 826.167969 325.355469 826.132812 325.515625 C 825.855469 326.789062 825.554688 328.085938 825.234375 329.40625 C 825.191406 329.574219 825.148438 329.746094 825.105469 329.914062 C 824.980469 330.429688 824.851562 330.945312 824.714844 331.464844 C 824.671875 331.636719 824.625 331.8125 824.578125 331.988281 C 824.40625 332.652344 824.226562 333.324219 824.039062 334 C 824.039062 334.007812 824.035156 334.011719 824.035156 334.015625 C 824.027344 334.042969 824.019531 334.066406 824.015625 334.089844 C 815.898438 332.503906 808.546875 328.597656 802.640625 322.714844 C 796.734375 316.832031 792.8125 309.511719 791.222656 301.425781 C 791.949219 301.226562 792.675781 301.035156 793.390625 300.847656 C 793.507812 300.816406 793.625 300.789062 793.742188 300.757812 C 794.371094 300.597656 794.996094 300.441406 795.613281 300.289062 C 795.671875 300.273438 795.734375 300.257812 795.792969 300.246094 C 811.964844 296.3125 824.5625 295.875 829.578125 295.882812 C 829.578125 295.914062 829.578125 295.941406 829.582031 295.96875 C 829.582031 296.066406 829.582031 296.164062 829.582031 296.265625 Z M 829.582031 296.265625 " fill-opacity="1" fill-rule="nonzero"/></g><path fill="#000000" d="M 757.941406 344.292969 C 745.242188 344.292969 734.90625 354.585938 734.90625 367.234375 C 734.90625 379.886719 745.242188 390.179688 757.941406 390.179688 C 770.644531 390.179688 780.976562 379.886719 780.976562 367.234375 C 780.976562 354.585938 770.644531 344.292969 757.941406 344.292969 Z M 757.941406 385.058594 C 748.074219 385.058594 740.046875 377.0625 740.046875 367.234375 C 740.046875 357.410156 748.074219 349.414062 757.941406 349.414062 C 767.808594 349.414062 775.835938 357.410156 775.835938 367.234375 C 775.835938 377.0625 767.808594 385.058594 757.941406 385.058594 Z M 757.941406 385.058594 " fill-opacity="1" fill-rule="nonzero"/><path fill="#000000" d="M 656.605469 468.167969 C 655.601562 467.167969 653.972656 467.167969 652.96875 468.167969 L 620.699219 500.304688 C 619.695312 501.304688 619.695312 502.925781 620.699219 503.925781 C 621.203125 504.425781 621.859375 504.675781 622.515625 504.675781 C 623.175781 504.675781 623.832031 504.425781 624.335938 503.925781 L 656.605469 471.785156 C 657.609375 470.789062 657.609375 469.167969 656.605469 468.167969 Z M 656.605469 468.167969 " fill-opacity="1" fill-rule="nonzero"/><path fill="#000000" d="M 668.984375 480.5 C 667.980469 479.5 666.355469 479.5 665.351562 480.5 L 644.277344 501.484375 C 643.273438 502.484375 643.273438 504.105469 644.277344 505.105469 C 644.78125 505.605469 645.4375 505.855469 646.097656 505.855469 C 646.753906 505.855469 647.414062 505.605469 647.914062 505.105469 L 668.984375 484.117188 C 669.988281 483.121094 669.988281 481.496094 668.984375 480.5 Z M 668.984375 480.5 " fill-opacity="1" fill-rule="nonzero"/><path fill="#000000" d="M 691.710938 482.53125 C 690.707031 481.53125 689.078125 481.53125 688.074219 482.53125 L 665.992188 504.527344 C 664.988281 505.527344 664.988281 507.148438 665.992188 508.148438 C 666.492188 508.648438 667.152344 508.898438 667.808594 508.898438 C 668.464844 508.898438 669.125 508.648438 669.625 508.148438 L 691.710938 486.152344 C 692.714844 485.152344 692.714844 483.53125 691.710938 482.53125 Z M 691.710938 482.53125 " fill-opacity="1" fill-rule="nonzero"/><path fill="#000000" d="M 642.179688 436.824219 C 643.1875 435.824219 643.1875 434.203125 642.179688 433.203125 C 641.175781 432.203125 639.550781 432.203125 638.546875 433.203125 L 616.460938 455.199219 C 615.457031 456.195312 615.457031 457.816406 616.460938 458.816406 C 616.964844 459.316406 617.621094 459.566406 618.28125 459.566406 C 618.9375 459.566406 619.597656 459.316406 620.097656 458.816406 Z M 642.179688 436.824219 " fill-opacity="1" fill-rule="nonzero"/><path fill="#000000" d="M 623.152344 480.441406 L 644.222656 459.453125 C 645.226562 458.457031 645.226562 456.835938 644.222656 455.835938 C 643.21875 454.835938 641.589844 454.835938 640.585938 455.835938 L 619.515625 476.820312 C 618.511719 477.820312 618.511719 479.441406 619.515625 480.441406 C 620.019531 480.941406 620.675781 481.191406 621.332031 481.191406 C 621.992188 481.191406 622.648438 480.941406 623.152344 480.441406 Z M 623.152344 480.441406 " fill-opacity="1" fill-rule="nonzero"/></svg>