<svg xmlns="http://www.w3.org/2000/svg" xmlns:xlink="http://www.w3.org/1999/xlink" width="1920" zoomAndPan="magnify" viewBox="0 0 1440 809.999993" height="1080" preserveAspectRatio="xMidYMid meet" version="1.0"><defs><clipPath id="4adce4b8cf"><path d="M 608 304.5 L 833 304.5 L 833 505.5 L 608 505.5 Z M 608 304.5 " clip-rule="nonzero"/></clipPath></defs><g clip-path="url(#4adce4b8cf)"><path fill="#1e1c1c" d="M 774.5625 381.363281 C 774.417969 381.125 774.515625 380.835938 774.707031 380.691406 C 774.949219 380.546875 775.238281 380.644531 775.382812 380.835938 C 776.15625 382.085938 776.878906 383.332031 777.554688 384.632812 C 777.699219 384.871094 777.605469 385.160156 777.363281 385.253906 C 777.316406 385.304688 777.21875 385.304688 777.121094 385.304688 C 776.929688 385.304688 776.785156 385.207031 776.6875 385.0625 C 776.058594 383.8125 775.335938 382.566406 774.5625 381.363281 Z M 771.808594 377.234375 C 771.90625 377.375 772.050781 377.425781 772.195312 377.425781 C 772.292969 377.425781 772.390625 377.375 772.484375 377.328125 C 772.679688 377.183594 772.726562 376.847656 772.582031 376.65625 C 770.601562 373.917969 768.382812 371.371094 765.96875 368.96875 C 765.773438 368.777344 765.484375 368.777344 765.292969 368.96875 C 765.097656 369.160156 765.097656 369.449219 765.292969 369.640625 C 767.65625 371.996094 769.878906 374.542969 771.808594 377.234375 Z M 736.753906 353.355469 C 744.480469 355.375 751.625 358.785156 758.097656 363.492188 C 758.195312 363.542969 758.289062 363.589844 758.386719 363.589844 C 758.53125 363.589844 758.675781 363.542969 758.773438 363.398438 C 758.917969 363.203125 758.871094 362.867188 758.675781 362.726562 C 752.15625 357.921875 744.867188 354.460938 737.042969 352.394531 C 736.804688 352.347656 736.511719 352.492188 736.464844 352.730469 C 736.367188 353.019531 736.511719 353.308594 736.753906 353.355469 Z M 724.152344 351.386719 C 725.457031 351.433594 726.710938 351.578125 728.015625 351.722656 C 728.015625 351.722656 728.0625 351.722656 728.0625 351.722656 C 728.304688 351.722656 728.5 351.53125 728.546875 351.292969 C 728.59375 351.050781 728.402344 350.8125 728.113281 350.761719 C 726.808594 350.617188 725.503906 350.523438 724.199219 350.425781 C 723.910156 350.425781 723.71875 350.617188 723.667969 350.859375 C 723.71875 351.148438 723.910156 351.386719 724.152344 351.386719 Z M 674.417969 371.035156 C 674.5625 371.035156 674.660156 370.988281 674.757812 370.890625 C 677.363281 368.152344 680.261719 365.65625 683.304688 363.398438 C 683.496094 363.253906 683.542969 362.917969 683.398438 362.726562 C 683.253906 362.53125 682.917969 362.484375 682.722656 362.628906 C 679.632812 364.886719 676.6875 367.433594 674.03125 370.21875 C 673.839844 370.410156 673.839844 370.699219 674.03125 370.890625 C 674.175781 370.988281 674.273438 371.035156 674.417969 371.035156 Z M 669.878906 376.320312 C 670.023438 376.320312 670.167969 376.273438 670.265625 376.128906 C 670.699219 375.550781 671.136719 374.976562 671.617188 374.445312 C 671.761719 374.253906 671.761719 373.917969 671.570312 373.773438 C 671.375 373.628906 671.039062 373.628906 670.894531 373.820312 C 670.410156 374.398438 669.976562 374.976562 669.542969 375.550781 C 669.398438 375.742188 669.445312 376.078125 669.636719 376.222656 C 669.6875 376.273438 669.785156 376.320312 669.878906 376.320312 Z M 656.941406 411.390625 C 657.230469 411.390625 657.421875 411.195312 657.472656 410.957031 C 658.050781 400.003906 661.476562 389.386719 667.464844 380.210938 C 667.609375 379.972656 667.5625 379.683594 667.320312 379.539062 C 667.078125 379.394531 666.789062 379.441406 666.644531 379.683594 C 660.609375 389.003906 657.085938 399.8125 656.503906 410.910156 C 656.457031 411.148438 656.699219 411.339844 656.941406 411.390625 Z M 657.085938 419.363281 C 656.792969 419.363281 656.601562 419.605469 656.648438 419.890625 C 656.792969 421.71875 657.035156 423.542969 657.375 425.320312 C 657.421875 425.5625 657.617188 425.707031 657.855469 425.707031 C 657.90625 425.707031 657.90625 425.707031 657.953125 425.707031 C 658.195312 425.65625 658.386719 425.417969 658.339844 425.128906 C 658.050781 423.351562 657.808594 421.574219 657.617188 419.796875 C 657.566406 419.554688 657.375 419.363281 657.085938 419.363281 Z M 718.164062 477.109375 C 709.910156 476.773438 701.894531 474.898438 694.410156 471.535156 C 694.167969 471.441406 693.878906 471.535156 693.78125 471.777344 C 693.683594 472.015625 693.78125 472.304688 694.023438 472.398438 C 701.601562 475.859375 709.714844 477.734375 718.117188 478.070312 C 718.359375 478.070312 718.601562 477.875 718.601562 477.589844 C 718.648438 477.347656 718.453125 477.15625 718.164062 477.109375 Z M 726.664062 477.398438 C 726.710938 477.636719 726.90625 477.828125 727.144531 477.828125 C 727.144531 477.828125 727.195312 477.828125 727.195312 477.828125 C 732.410156 477.300781 737.527344 476.148438 742.453125 474.371094 C 742.695312 474.273438 742.839844 473.984375 742.742188 473.746094 C 742.644531 473.503906 742.355469 473.359375 742.113281 473.457031 C 737.285156 475.1875 732.214844 476.339844 727.097656 476.867188 C 726.808594 476.867188 726.613281 477.109375 726.664062 477.398438 Z M 752.0625 468.84375 C 750.949219 469.46875 749.839844 470.09375 748.679688 470.621094 C 748.441406 470.71875 748.34375 471.007812 748.441406 471.246094 C 748.535156 471.441406 748.679688 471.535156 748.875 471.535156 C 748.921875 471.535156 749.019531 471.535156 749.066406 471.488281 C 750.226562 470.910156 751.386719 470.285156 752.496094 469.660156 C 752.738281 469.519531 752.785156 469.230469 752.6875 468.988281 C 752.59375 468.796875 752.304688 468.75 752.0625 468.84375 Z M 756.214844 466.25 C 755.972656 466.394531 755.925781 466.683594 756.070312 466.921875 C 756.164062 467.066406 756.308594 467.117188 756.457031 467.117188 C 756.550781 467.117188 756.648438 467.066406 756.746094 467.019531 C 763.554688 462.40625 769.300781 456.644531 773.886719 449.820312 C 774.03125 449.582031 773.984375 449.292969 773.742188 449.148438 C 773.5 449.003906 773.210938 449.054688 773.066406 449.292969 C 768.625 456.019531 762.925781 461.734375 756.214844 466.25 Z M 791.414062 421.046875 C 789.722656 438.4375 781.660156 454.53125 768.671875 466.394531 C 755.539062 478.40625 738.445312 484.988281 720.628906 484.988281 C 701.941406 484.988281 684.316406 477.828125 670.941406 464.859375 C 663.941406 465.914062 657.277344 466.636719 651 466.921875 C 648.585938 467.019531 646.269531 467.117188 644.046875 467.117188 C 624.539062 467.117188 612.226562 462.601562 609.136719 454.191406 C 604.742188 442.183594 620 424.214844 649.9375 406.058594 C 654.089844 370.363281 684.460938 343.460938 720.628906 343.460938 C 737.382812 343.460938 753.316406 349.226562 766.113281 359.792969 C 766.160156 359.699219 766.304688 359.601562 766.449219 359.554688 C 772.050781 358.640625 777.507812 357.921875 782.675781 357.441406 C 782.964844 357.390625 783.15625 357.632812 783.207031 357.871094 C 783.207031 358.160156 783.011719 358.351562 782.769531 358.402344 C 777.75 358.882812 772.390625 359.554688 766.933594 360.417969 C 767.753906 361.089844 768.527344 361.8125 769.300781 362.53125 C 804.015625 357.152344 827.386719 361.089844 831.828125 373.101562 C 835.257812 382.46875 826.855469 395.488281 808.121094 409.707031 C 803.050781 413.550781 797.496094 417.347656 791.414062 421.046875 Z M 650.902344 406.34375 C 650.902344 406.394531 650.902344 406.394531 650.902344 406.34375 C 650.902344 406.394531 650.902344 406.394531 650.902344 406.394531 C 650.613281 408.988281 650.46875 411.582031 650.46875 414.175781 C 650.46875 429.644531 655.441406 444.25 664.808594 456.5 C 683.398438 453.617188 705.175781 447.753906 727.4375 439.683594 C 751.773438 430.84375 773.933594 420.230469 790.640625 409.5625 C 789.722656 395.679688 784.75 382.515625 776.15625 371.515625 C 773.933594 368.632812 771.421875 365.894531 768.769531 363.398438 C 755.683594 351.195312 738.589844 344.421875 720.628906 344.421875 C 684.847656 344.421875 654.910156 371.035156 650.902344 406.34375 Z M 795.324219 406.488281 C 811.984375 395.054688 820.191406 384.773438 817.777344 378.242188 C 815.171875 371.082031 800.441406 368.730469 777.410156 371.613281 C 785.667969 382.515625 790.542969 395.390625 791.558594 408.988281 C 792.8125 408.171875 794.070312 407.355469 795.324219 406.488281 Z M 649.550781 417.011719 C 627.339844 430.507812 615.753906 443.144531 618.554688 450.78125 C 620.96875 457.316406 633.90625 459.910156 654.042969 457.941406 C 657.179688 457.652344 660.417969 457.21875 663.746094 456.738281 C 655.007812 445.113281 650.132812 431.46875 649.550781 417.011719 Z M 670.941406 463.898438 C 670.992188 463.898438 671.039062 463.847656 671.085938 463.898438 C 690.0625 460.964844 711.355469 455.394531 732.890625 447.5625 C 754.378906 439.734375 774.273438 430.363281 790.640625 420.421875 C 790.691406 420.421875 790.691406 420.371094 790.738281 420.371094 C 796.820312 416.671875 802.472656 412.878906 807.492188 409.082031 C 825.839844 395.105469 834.195312 382.515625 830.863281 373.582031 C 828.785156 367.863281 821.882812 363.972656 810.921875 362.246094 C 800.394531 360.609375 786.296875 361.042969 770.121094 363.492188 C 772.484375 365.75 774.707031 368.203125 776.734375 370.796875 C 800.589844 367.722656 815.847656 370.316406 818.648438 377.953125 C 821.253906 385.015625 813.140625 395.488281 795.855469 407.355469 C 778.714844 419.125 754.523438 430.941406 727.773438 440.695312 C 701.023438 450.445312 674.851562 456.929688 654.140625 458.949219 C 649.648438 459.382812 645.496094 459.621094 641.777344 459.621094 C 628.160156 459.621094 619.710938 456.738281 617.683594 451.167969 C 614.640625 442.902344 626.230469 430.078125 649.550781 415.953125 C 649.550781 415.375 649.550781 414.847656 649.550781 414.273438 C 649.550781 411.964844 649.695312 409.613281 649.890625 407.304688 C 635.984375 415.808594 624.976562 424.503906 617.972656 432.480469 C 610.730469 440.789062 607.976562 448.1875 610.101562 453.90625 C 613.386719 462.839844 627.921875 467.164062 651 466.011719 C 657.230469 465.675781 663.941406 464.953125 670.941406 463.898438 Z M 790.398438 421.671875 C 774.128906 431.46875 754.476562 440.695312 733.277344 448.429688 C 712.03125 456.164062 690.980469 461.734375 672.199219 464.714844 C 685.332031 477.203125 702.472656 484.074219 720.675781 484.074219 C 738.300781 484.074219 755.101562 477.539062 768.09375 465.722656 C 780.695312 454.144531 788.566406 438.53125 790.398438 421.671875 Z M 736.753906 434.015625 C 736.804688 434.015625 736.851562 434.015625 736.949219 433.96875 C 739.363281 433.007812 741.777344 432.046875 744.09375 431.085938 C 744.335938 430.988281 744.480469 430.703125 744.335938 430.460938 C 744.238281 430.222656 743.949219 430.078125 743.707031 430.222656 C 741.390625 431.183594 738.976562 432.144531 736.5625 433.101562 C 736.320312 433.199219 736.175781 433.488281 736.273438 433.726562 C 736.367188 433.871094 736.5625 434.015625 736.753906 434.015625 Z M 724.492188 437.570312 C 724.25 437.667969 724.105469 437.957031 724.199219 438.195312 C 724.25 438.386719 724.441406 438.53125 724.636719 438.53125 C 724.683594 438.53125 724.730469 438.53125 724.78125 438.484375 C 725.648438 438.195312 726.519531 437.859375 727.386719 437.523438 C 728.207031 437.234375 729.078125 436.898438 729.898438 436.609375 C 730.140625 436.515625 730.285156 436.226562 730.1875 435.984375 C 730.089844 435.746094 729.800781 435.601562 729.558594 435.699219 C 728.738281 435.984375 727.871094 436.320312 727.050781 436.609375 C 726.230469 436.945312 725.359375 437.28125 724.492188 437.570312 Z M 681.273438 450.734375 C 681.324219 450.972656 681.515625 451.117188 681.757812 451.117188 C 681.804688 451.117188 681.804688 451.117188 681.855469 451.117188 C 694.457031 448.285156 707.832031 444.441406 721.59375 439.636719 C 721.835938 439.539062 721.980469 439.253906 721.882812 439.011719 C 721.785156 438.773438 721.496094 438.628906 721.253906 438.722656 C 707.542969 443.480469 694.214844 447.324219 681.613281 450.15625 C 681.371094 450.207031 681.179688 450.492188 681.273438 450.734375 Z M 625.121094 448.574219 C 624.589844 447.082031 624.683594 445.355469 625.457031 443.382812 C 625.554688 443.144531 625.410156 442.855469 625.167969 442.757812 C 624.925781 442.664062 624.636719 442.808594 624.539062 443.046875 C 623.671875 445.210938 623.574219 447.179688 624.203125 448.910156 C 625.601562 452.75 630.480469 455.058594 638.6875 455.777344 C 638.6875 455.777344 638.734375 455.777344 638.734375 455.777344 C 638.976562 455.777344 639.171875 455.585938 639.21875 455.347656 C 639.21875 455.105469 639.027344 454.867188 638.785156 454.816406 C 631.058594 454.144531 626.375 451.984375 625.121094 448.574219 Z M 805.273438 375.023438 C 805.464844 375.023438 805.65625 374.878906 805.753906 374.6875 C 805.800781 374.445312 805.65625 374.160156 805.417969 374.109375 C 800.25 372.765625 793.007812 372.476562 783.882812 373.246094 C 783.640625 373.246094 783.398438 373.484375 783.445312 373.773438 C 783.445312 374.015625 783.6875 374.253906 783.976562 374.207031 C 793.007812 373.4375 800.152344 373.726562 805.175781 375.023438 C 805.175781 375.023438 805.222656 375.023438 805.273438 375.023438 Z M 832.3125 389.722656 C 832.070312 389.578125 831.78125 389.628906 831.636719 389.867188 C 825.550781 399.089844 814.058594 409.371094 798.414062 419.507812 C 798.171875 419.652344 798.125 419.941406 798.269531 420.179688 C 798.367188 420.324219 798.511719 420.421875 798.65625 420.421875 C 798.753906 420.421875 798.851562 420.371094 798.898438 420.324219 C 814.640625 410.09375 826.226562 399.714844 832.40625 390.394531 C 832.601562 390.15625 832.503906 389.867188 832.3125 389.722656 Z M 743.320312 448.234375 C 743.371094 448.234375 743.417969 448.234375 743.515625 448.1875 C 751.289062 445.160156 758.871094 441.847656 766.160156 438.4375 C 766.402344 438.339844 766.5 438.050781 766.402344 437.8125 C 766.304688 437.570312 766.015625 437.476562 765.773438 437.570312 C 758.53125 440.980469 750.949219 444.296875 743.175781 447.324219 C 742.933594 447.417969 742.789062 447.707031 742.886719 447.949219 C 742.933594 448.140625 743.128906 448.234375 743.320312 448.234375 Z M 734.4375 451.597656 C 734.484375 451.597656 734.535156 451.597656 734.582031 451.550781 C 735.789062 451.117188 736.949219 450.6875 738.105469 450.253906 C 738.347656 450.15625 738.492188 449.871094 738.398438 449.628906 C 738.300781 449.390625 738.011719 449.246094 737.769531 449.339844 C 736.609375 449.773438 735.402344 450.207031 734.242188 450.636719 C 734.003906 450.734375 733.859375 451.023438 733.953125 451.261719 C 734.050781 451.453125 734.242188 451.597656 734.4375 451.597656 Z M 662.25 468.363281 C 660.65625 468.558594 659.113281 468.703125 657.566406 468.84375 C 657.277344 468.84375 657.085938 469.085938 657.132812 469.375 C 657.132812 469.613281 657.375 469.804688 657.617188 469.804688 C 657.617188 469.804688 657.664062 469.804688 657.664062 469.804688 C 659.207031 469.660156 660.800781 469.519531 662.394531 469.324219 C 662.636719 469.277344 662.832031 469.039062 662.832031 468.796875 C 662.832031 468.558594 662.492188 468.363281 662.25 468.363281 Z M 653.414062 469.132812 C 644.773438 469.660156 636.996094 469.519531 630.335938 468.703125 C 630.09375 468.652344 629.851562 468.84375 629.804688 469.132812 C 629.753906 469.375 629.949219 469.613281 630.238281 469.660156 C 634.292969 470.191406 638.785156 470.429688 643.613281 470.429688 C 646.75 470.429688 650.035156 470.335938 653.464844 470.09375 C 653.753906 470.09375 653.945312 469.855469 653.898438 469.566406 C 653.898438 469.324219 653.65625 469.132812 653.414062 469.132812 Z M 612.277344 433.488281 C 612.421875 433.488281 612.566406 433.441406 612.660156 433.296875 C 616.523438 428.492188 621.691406 423.449219 628.113281 418.308594 C 628.304688 418.164062 628.355469 417.828125 628.210938 417.632812 C 628.066406 417.441406 627.726562 417.394531 627.535156 417.539062 C 621.0625 422.726562 615.847656 427.820312 611.9375 432.671875 C 611.792969 432.863281 611.792969 433.199219 612.035156 433.34375 C 612.035156 433.488281 612.132812 433.488281 612.277344 433.488281 Z M 638.6875 409.324219 C 637.527344 410.09375 636.417969 410.910156 635.308594 411.675781 C 635.113281 411.820312 635.019531 412.109375 635.210938 412.351562 C 635.308594 412.496094 635.453125 412.542969 635.597656 412.542969 C 635.695312 412.542969 635.789062 412.496094 635.886719 412.445312 C 636.996094 411.675781 638.109375 410.859375 639.265625 410.09375 C 639.507812 409.949219 639.558594 409.660156 639.410156 409.417969 C 639.21875 409.226562 638.929688 409.179688 638.6875 409.324219 Z M 787.40625 357.632812 C 787.40625 357.871094 787.648438 358.066406 787.890625 358.066406 C 787.890625 358.066406 787.890625 358.066406 787.9375 358.066406 C 789.433594 357.96875 790.929688 357.871094 792.378906 357.824219 C 792.667969 357.824219 792.863281 357.585938 792.863281 357.34375 C 792.863281 357.054688 792.621094 356.863281 792.378906 356.863281 C 790.929688 356.910156 789.386719 357.007812 787.890625 357.105469 C 787.550781 357.105469 787.359375 357.34375 787.40625 357.632812 Z M 804.5 420.371094 C 804.59375 420.371094 804.691406 420.324219 804.789062 420.277344 C 808.363281 417.828125 811.742188 415.375 814.878906 412.925781 C 815.074219 412.78125 815.121094 412.445312 814.976562 412.253906 C 814.832031 412.0625 814.492188 412.015625 814.300781 412.15625 C 811.210938 414.609375 807.832031 417.058594 804.257812 419.460938 C 804.015625 419.605469 803.96875 419.890625 804.113281 420.132812 C 804.210938 420.324219 804.355469 420.371094 804.5 420.371094 Z M 794.214844 426.523438 C 794.3125 426.667969 794.457031 426.761719 794.648438 426.761719 C 794.746094 426.761719 794.84375 426.761719 794.890625 426.714844 C 796.242188 425.898438 797.59375 425.03125 798.945312 424.214844 C 799.1875 424.070312 799.234375 423.785156 799.089844 423.542969 C 798.945312 423.304688 798.65625 423.253906 798.414062 423.398438 C 797.113281 424.214844 795.757812 425.082031 794.40625 425.898438 C 794.164062 425.992188 794.070312 426.28125 794.214844 426.523438 Z M 638.445312 472.59375 C 631.011719 472.351562 624.492188 471.441406 619.085938 469.949219 C 618.84375 469.902344 618.554688 470.046875 618.503906 470.285156 C 618.457031 470.527344 618.601562 470.816406 618.84375 470.863281 C 624.347656 472.351562 630.960938 473.265625 638.445312 473.503906 C 638.6875 473.503906 638.929688 473.3125 638.929688 473.023438 C 638.929688 472.832031 638.6875 472.59375 638.445312 472.59375 Z M 621.933594 419.125 C 622.03125 419.125 622.175781 419.074219 622.269531 419.027344 C 625.167969 416.578125 628.355469 414.03125 631.734375 411.582031 C 631.929688 411.4375 631.976562 411.101562 631.832031 410.910156 C 631.6875 410.714844 631.347656 410.667969 631.15625 410.8125 C 627.773438 413.3125 624.539062 415.808594 621.644531 418.308594 C 621.449219 418.5 621.402344 418.789062 621.59375 418.980469 C 621.644531 419.074219 621.789062 419.125 621.933594 419.125 Z M 757.421875 320.976562 C 757.421875 320.738281 757.566406 320.546875 757.808594 320.496094 C 768.816406 317.902344 770.890625 315.886719 773.5 304.882812 C 773.546875 304.644531 773.742188 304.5 773.984375 304.5 C 774.222656 304.5 774.417969 304.644531 774.464844 304.882812 C 777.074219 315.835938 779.101562 317.902344 790.160156 320.496094 C 790.398438 320.546875 790.542969 320.738281 790.542969 320.976562 C 790.542969 321.21875 790.398438 321.410156 790.160156 321.457031 C 779.148438 324.050781 777.074219 326.070312 774.464844 337.070312 C 774.417969 337.3125 774.222656 337.457031 773.984375 337.457031 C 773.742188 337.457031 773.546875 337.3125 773.5 337.070312 C 770.890625 326.117188 768.863281 324.050781 757.808594 321.457031 C 757.613281 321.410156 757.421875 321.21875 757.421875 320.976562 Z M 759.933594 320.976562 C 769.105469 323.332031 771.570312 325.78125 773.933594 334.910156 C 776.300781 325.78125 778.761719 323.332031 787.9375 320.976562 C 778.761719 318.625 776.300781 316.171875 773.933594 307.046875 C 771.617188 316.171875 769.105469 318.625 759.933594 320.976562 Z M 629.222656 379.875 C 629.222656 379.636719 629.367188 379.441406 629.609375 379.394531 C 634.390625 378.289062 635.210938 377.472656 636.320312 372.71875 C 636.371094 372.476562 636.5625 372.332031 636.804688 372.332031 C 637.046875 372.332031 637.238281 372.476562 637.289062 372.71875 C 638.398438 377.472656 639.21875 378.289062 644 379.394531 C 644.242188 379.441406 644.386719 379.636719 644.386719 379.875 C 644.386719 380.113281 644.242188 380.308594 644 380.355469 C 639.21875 381.460938 638.398438 382.277344 637.289062 387.03125 C 637.238281 387.273438 637.046875 387.417969 636.804688 387.417969 C 636.5625 387.417969 636.371094 387.273438 636.320312 387.03125 C 635.210938 382.277344 634.390625 381.460938 629.609375 380.355469 C 629.417969 380.308594 629.222656 380.113281 629.222656 379.875 Z M 631.636719 379.875 C 634.726562 380.789062 635.886719 381.941406 636.804688 385.015625 C 637.722656 381.941406 638.882812 380.789062 641.972656 379.875 C 638.882812 378.960938 637.722656 377.808594 636.804688 374.734375 C 635.886719 377.808594 634.679688 378.960938 631.636719 379.875 Z M 641.101562 337.457031 C 641.101562 337.214844 641.296875 337.023438 641.535156 336.976562 L 651.726562 335.628906 L 653.027344 325.542969 C 653.078125 325.300781 653.269531 325.109375 653.511719 325.109375 C 653.753906 325.109375 653.945312 325.300781 653.996094 325.542969 L 655.296875 335.628906 L 665.484375 336.925781 C 665.726562 336.976562 665.921875 337.167969 665.921875 337.40625 C 665.921875 337.648438 665.726562 337.839844 665.484375 337.886719 L 655.25 339.234375 L 653.945312 349.371094 C 653.898438 349.609375 653.703125 349.800781 653.464844 349.800781 C 653.222656 349.800781 653.027344 349.609375 652.980469 349.371094 L 651.675781 339.234375 L 641.488281 337.9375 C 641.246094 337.9375 641.101562 337.742188 641.101562 337.457031 Z M 645.351562 337.457031 L 652.160156 338.320312 C 652.402344 338.367188 652.546875 338.511719 652.59375 338.753906 L 653.464844 345.574219 L 654.332031 338.753906 C 654.378906 338.511719 654.523438 338.367188 654.765625 338.320312 L 661.574219 337.457031 L 654.765625 336.589844 C 654.523438 336.542969 654.378906 336.398438 654.332031 336.160156 L 653.464844 329.386719 L 652.59375 336.160156 C 652.546875 336.398438 652.402344 336.542969 652.160156 336.589844 Z M 820.53125 443 C 820.53125 443.238281 820.335938 443.433594 820.09375 443.480469 L 809.90625 444.777344 L 808.601562 454.914062 C 808.554688 455.152344 808.363281 455.347656 808.121094 455.347656 C 807.878906 455.347656 807.6875 455.152344 807.636719 454.914062 L 806.332031 444.777344 L 796.144531 443.480469 C 795.902344 443.433594 795.710938 443.238281 795.710938 443 C 795.710938 442.757812 795.902344 442.566406 796.144531 442.519531 L 806.332031 441.175781 L 807.636719 431.085938 C 807.6875 430.84375 807.878906 430.652344 808.121094 430.652344 C 808.363281 430.652344 808.554688 430.84375 808.601562 431.085938 L 809.90625 441.175781 L 820.09375 442.472656 C 820.335938 442.566406 820.53125 442.757812 820.53125 443 Z M 816.28125 443 L 809.472656 442.136719 C 809.230469 442.085938 809.085938 441.941406 809.039062 441.703125 L 808.167969 434.929688 L 807.300781 441.703125 C 807.25 441.941406 807.105469 442.085938 806.863281 442.136719 L 800.058594 443.046875 L 806.863281 443.914062 C 807.105469 443.960938 807.25 444.105469 807.300781 444.34375 L 808.167969 451.167969 L 809.039062 444.34375 C 809.085938 444.105469 809.230469 443.960938 809.472656 443.914062 Z M 796.726562 478.886719 C 796.726562 480.519531 795.375 481.816406 793.78125 481.816406 C 792.1875 481.816406 790.835938 480.472656 790.835938 478.886719 C 790.835938 477.300781 792.1875 475.957031 793.78125 475.957031 C 795.375 475.957031 796.726562 477.253906 796.726562 478.886719 Z M 795.757812 478.886719 C 795.757812 477.78125 794.84375 476.917969 793.78125 476.917969 C 792.71875 476.917969 791.800781 477.828125 791.800781 478.886719 C 791.800781 479.941406 792.71875 480.855469 793.78125 480.855469 C 794.84375 480.855469 795.757812 479.992188 795.757812 478.886719 Z M 687.457031 501.082031 C 687.457031 503.53125 685.476562 505.5 683.011719 505.5 C 680.550781 505.5 678.570312 503.53125 678.570312 501.082031 C 678.570312 498.628906 680.550781 496.660156 683.011719 496.660156 C 685.476562 496.660156 687.457031 498.628906 687.457031 501.082031 Z M 686.488281 501.082031 C 686.488281 499.160156 684.898438 497.621094 683.011719 497.621094 C 681.082031 497.621094 679.535156 499.207031 679.535156 501.082031 C 679.535156 503 681.128906 504.539062 683.011719 504.539062 C 684.898438 504.585938 686.488281 503 686.488281 501.082031 Z M 730.574219 323.859375 C 730.574219 321.988281 732.121094 320.496094 733.953125 320.496094 C 735.835938 320.496094 737.335938 322.035156 737.335938 323.859375 C 737.335938 325.6875 735.789062 327.222656 733.953125 327.222656 C 732.121094 327.269531 730.574219 325.734375 730.574219 323.859375 Z M 731.539062 323.859375 C 731.539062 325.207031 732.652344 326.261719 733.953125 326.261719 C 735.304688 326.261719 736.367188 325.15625 736.367188 323.859375 C 736.367188 322.515625 735.257812 321.457031 733.953125 321.457031 C 732.652344 321.457031 731.539062 322.5625 731.539062 323.859375 Z M 659.5 484.507812 C 658.097656 484.507812 656.988281 485.613281 656.988281 487.003906 C 656.988281 488.398438 658.097656 489.503906 659.5 489.503906 C 660.898438 489.503906 662.007812 488.398438 662.007812 487.003906 C 662.007812 485.613281 660.851562 484.507812 659.5 484.507812 Z M 800.734375 337.457031 C 801.890625 337.457031 802.808594 336.542969 802.808594 335.390625 C 802.808594 334.238281 801.890625 333.324219 800.734375 333.324219 C 799.574219 333.324219 798.65625 334.238281 798.65625 335.390625 C 798.65625 336.542969 799.621094 337.457031 800.734375 337.457031 Z M 800.734375 337.457031 " fill-opacity="1" fill-rule="nonzero"/></g></svg>